<?xml version="1.0" standalone="no"?>
<!DOCTYPE svg PUBLIC "-//W3C//DTD SVG 20010904//EN"
 "http://www.w3.org/TR/2001/REC-SVG-20010904/DTD/svg10.dtd">
<svg version="1.0" xmlns="http://www.w3.org/2000/svg"
 width="944.000000pt" height="944.000000pt" viewBox="0 0 944.000000 944.000000"
 preserveAspectRatio="xMidYMid meet">
<metadata>
Created by potrace 1.14, written by Peter Selinger 2001-2017
</metadata>
<g transform="translate(0.000000,944.000000) scale(0.100000,-0.100000)"
fill="#000000" stroke="none">
<path d="M4601 9329 c-107 -30 -298 -87 -321 -96 -8 -4 -17 -7 -20 -8 -3 0
-59 -18 -125 -39 -66 -20 -185 -58 -265 -82 -80 -25 -156 -49 -170 -54 -14 -5
-79 -25 -145 -45 -66 -21 -160 -50 -210 -65 -87 -27 -199 -61 -220 -66 -5 -1
-55 -13 -110 -27 -141 -36 -271 -48 -335 -32 -14 3 -36 8 -50 11 -21 4 -235
74 -280 91 -8 4 -17 7 -20 8 -3 0 -75 24 -160 52 -230 75 -421 134 -444 139
-34 6 -102 -94 -214 -316 -79 -157 -143 -306 -135 -314 4 -3 2 -6 -3 -6 -5 0
-10 -8 -11 -18 -2 -19 -54 -130 -84 -179 -11 -17 -22 -42 -24 -55 -3 -12 -9
-45 -15 -73 -18 -91 -21 -147 -25 -425 -2 -151 -5 -282 -7 -290 -5 -23 -40
-87 -100 -185 -107 -175 -328 -608 -328 -644 0 -6 -5 -11 -12 -11 -6 0 -9 -3
-5 -6 3 -3 1 -18 -5 -33 -24 -60 -59 -157 -63 -171 -2 -8 -18 -51 -35 -95 -17
-44 -32 -88 -33 -97 0 -10 -4 -18 -7 -18 -4 0 -7 -6 -7 -12 0 -7 -12 -51 -26
-98 -14 -47 -36 -125 -47 -175 -19 -81 -24 -103 -34 -170 -2 -11 -4 -20 -6
-20 -1 0 -3 -9 -4 -20 -5 -39 -18 -130 -21 -145 -2 -14 -11 -79 -20 -160 -3
-19 -7 -64 -10 -100 -3 -36 -8 -87 -10 -115 -16 -163 -31 -446 -39 -740 -3
-77 -8 -246 -12 -375 -10 -318 -11 -488 -4 -530 5 -31 9 -35 34 -33 16 1 37
11 47 22 10 11 25 23 32 28 7 4 23 22 34 39 29 41 50 39 95 -8 45 -47 60 -97
74 -243 2 -22 6 -62 9 -90 3 -27 8 -72 10 -100 12 -130 17 -176 31 -254 19
-110 33 -161 44 -161 15 0 35 38 81 154 52 131 68 144 167 122 12 -3 27 -8 32
-11 18 -11 58 -90 100 -200 23 -60 48 -124 56 -142 8 -17 14 -33 14 -36 0 -2
10 -26 22 -53 12 -27 21 -52 20 -56 -1 -5 2 -8 8 -8 6 0 9 -3 8 -7 -1 -5 15
-43 35 -85 20 -43 37 -82 37 -87 0 -5 3 -11 8 -13 4 -1 27 -41 51 -88 149
-287 318 -498 516 -645 22 -17 44 -36 48 -42 4 -7 13 -13 18 -13 6 0 18 -7 26
-16 36 -35 123 -96 134 -92 7 2 11 28 11 68 0 110 40 180 101 180 46 0 89 -32
144 -107 16 -21 36 -47 45 -58 9 -11 33 -40 53 -65 34 -42 217 -240 275 -299
48 -49 136 -156 158 -192 20 -33 89 -97 133 -124 9 -5 40 -25 70 -43 30 -18
61 -37 69 -42 24 -15 175 -95 180 -96 9 -1 52 -20 142 -62 48 -22 89 -38 91
-36 2 3 10 -2 17 -11 7 -8 18 -15 25 -15 8 0 36 -11 63 -25 28 -14 55 -25 60
-25 6 0 12 -3 14 -7 2 -5 37 -25 78 -46 143 -71 331 -182 338 -199 2 -4 9 -8
16 -8 11 0 68 -48 148 -125 20 -20 48 -38 62 -41 58 -10 717 -19 761 -10 11 3
24 5 29 5 5 1 6 4 3 8 -8 8 27 66 60 99 89 89 262 206 398 270 39 18 120 50
181 70 60 20 116 40 125 45 9 4 27 10 40 13 22 4 155 56 239 93 19 9 40 17 45
18 6 2 72 32 148 68 99 48 137 71 138 84 1 10 2 45 3 79 2 45 8 69 26 95 13
19 28 36 32 37 4 2 8 8 8 13 0 5 22 33 49 61 104 112 225 247 267 298 16 19
32 36 37 38 4 2 7 8 7 13 0 12 12 27 63 81 41 42 90 68 130 68 27 0 77 -35 77
-54 0 -7 14 -27 32 -45 26 -27 37 -32 61 -27 24 5 110 55 157 93 128 101 211
175 274 242 23 24 47 50 54 57 6 7 12 15 12 18 0 3 21 35 46 71 160 228 299
508 410 825 44 124 80 207 96 216 4 3 24 7 44 9 29 2 42 -3 65 -25 16 -15 29
-30 29 -34 0 -23 45 -95 69 -109 55 -32 74 -16 87 72 3 20 7 43 10 51 3 8 8
33 10 55 3 22 8 51 10 65 3 14 7 45 9 70 3 25 7 61 10 80 3 19 8 58 11 85 12
130 14 153 20 190 11 79 24 114 45 120 22 7 41 44 31 60 -11 18 -12 45 -2 45
6 0 9 -3 8 -7 -3 -15 28 -73 35 -66 4 3 7 1 7 -6 0 -8 11 -10 36 -7 38 7 104
-17 104 -37 0 -7 5 -6 13 2 9 9 12 107 11 429 -2 510 -9 826 -18 841 -4 6 -2
11 4 11 6 0 8 5 4 11 -3 6 -8 48 -9 93 -4 93 -15 275 -20 326 -2 19 -6 67 -10
105 -5 68 -12 130 -20 170 -1 11 -7 45 -11 75 -4 30 -9 57 -9 60 -2 7 -17 82
-21 105 -2 11 -7 36 -10 55 -4 19 -10 40 -13 45 -4 6 -8 23 -9 39 -1 16 -7 35
-13 42 -6 8 -9 14 -6 14 2 0 -9 48 -25 108 -16 59 -31 116 -32 127 -2 11 -16
52 -31 90 -14 39 -28 77 -30 85 -5 20 -62 162 -111 275 -47 111 -210 434 -230
456 -8 9 -11 19 -7 22 3 4 1 7 -5 7 -7 0 -12 5 -12 10 0 6 -11 27 -24 48 -156
248 -155 245 -148 387 2 55 5 181 5 280 1 164 -1 187 -23 255 -13 41 -25 80
-27 85 -6 24 -76 223 -88 250 -7 17 -23 57 -36 90 -33 87 -123 274 -153 318
-14 21 -26 40 -26 44 0 9 -86 128 -103 141 -21 18 -70 22 -113 10 -20 -5 -44
-11 -53 -13 -9 -2 -45 -13 -81 -25 -36 -12 -72 -23 -80 -24 -9 -1 -20 -5 -25
-8 -12 -7 -381 -128 -409 -133 -11 -3 -40 -11 -65 -19 -56 -18 -204 -56 -246
-62 -86 -14 -126 -11 -231 17 -60 17 -116 32 -124 34 -8 2 -60 18 -115 35 -55
17 -109 33 -120 35 -25 4 -473 143 -500 155 -11 5 -31 12 -45 15 -14 4 -79 24
-145 45 -144 46 -395 124 -485 152 -36 11 -72 22 -80 25 -8 4 -18 7 -22 8 -5
2 -9 3 -10 5 -2 1 -10 3 -18 5 -8 1 -34 8 -58 14 -59 16 -128 11 -241 -20z
m248 -381 c36 -11 71 -21 76 -23 6 -1 17 -5 25 -8 24 -9 498 -154 525 -161 58
-13 124 -45 100 -47 -6 0 -19 -3 -30 -5 -11 -3 -32 -6 -47 -9 -16 -2 -43 -8
-62 -14 -19 -5 -36 -7 -39 -5 -2 2 -29 -1 -60 -7 -32 -5 -72 -11 -90 -13 -42
-4 -136 -17 -162 -22 -114 -23 -514 -22 -625 1 -14 3 -43 7 -65 10 -174 21
-236 29 -349 46 -71 11 -132 21 -134 24 -8 8 1 13 28 18 14 3 36 10 50 15 14
5 30 10 35 11 16 2 221 67 465 146 244 79 243 79 359 43z m-2961 -100 c43 -12
140 -44 217 -70 77 -27 145 -50 150 -52 73 -24 115 -47 108 -59 -5 -9 -197 -2
-213 8 -10 6 -58 14 -122 21 -86 9 -78 -16 15 -45 39 -12 79 -25 87 -28 8 -3
22 -7 30 -9 8 -2 31 -6 50 -10 19 -4 41 -8 47 -10 30 -6 73 -30 73 -41 0 -19
-79 -29 -320 -38 -69 -3 -136 -7 -150 -9 -14 -2 -33 -4 -43 -5 -42 -3 -6 -26
58 -38 89 -16 123 -46 66 -58 -11 -3 -31 -7 -43 -10 -13 -3 -34 -7 -48 -10
-14 -3 -40 -9 -58 -14 -18 -5 -35 -10 -37 -11 -99 -18 -89 -25 36 -25 60 0
109 -3 109 -7 0 -4 7 -5 15 -2 8 4 15 4 15 0 0 -3 -39 -25 -87 -49 -127 -63
-150 -78 -197 -119 l-41 -38 40 6 c22 3 50 7 63 9 23 4 23 4 6 -23 -24 -36
-229 -242 -242 -242 -5 0 -12 6 -15 14 -7 17 -1 164 7 186 3 8 7 26 10 40 10
61 83 312 106 365 10 25 23 58 24 65 6 32 117 264 127 268 5 2 9 8 9 13 0 16
34 47 53 48 10 1 53 -9 95 -21z m5913 -10 c32 -35 110 -188 153 -298 106 -276
188 -640 150 -671 -19 -16 -43 1 -105 72 -72 83 -119 137 -146 167 -23 25 -31
48 -14 38 5 -3 26 -8 47 -11 22 -3 45 -8 52 -10 6 -2 12 2 12 10 0 21 -71 66
-201 129 -81 39 -107 55 -89 57 14 1 39 3 55 4 17 2 63 6 104 9 41 3 76 7 78
10 2 2 -38 11 -89 21 -51 9 -103 19 -115 21 -12 2 -33 8 -47 14 -13 5 -27 6
-30 3 -3 -4 -6 3 -6 14 0 24 35 41 99 47 49 5 74 21 45 30 -41 12 -94 18 -189
22 -286 11 -355 19 -355 44 0 8 81 29 137 35 12 2 27 6 32 10 10 5 28 11 68
19 7 1 16 5 19 9 4 4 14 7 21 7 25 0 123 53 123 66 0 7 -6 11 -12 9 -7 -2 -26
-6 -43 -9 -16 -3 -39 -7 -50 -10 -11 -3 -38 -10 -60 -16 -55 -15 -243 -22
-263 -11 -19 11 -12 14 128 66 41 15 84 31 95 36 26 11 116 40 135 44 8 2 47
13 85 25 125 39 138 39 176 -2z m-4011 -372 c69 -4 143 -9 165 -11 22 -3 69
-7 105 -10 36 -3 79 -7 95 -10 17 -2 50 -6 75 -9 121 -14 189 -23 228 -31 137
-26 497 -22 682 9 27 4 140 18 180 22 14 1 25 3 25 4 0 1 27 3 60 6 33 2 80 6
105 8 352 29 986 25 1200 -7 97 -15 264 -63 319 -92 17 -8 31 -13 31 -10 0 5
176 -84 230 -115 51 -31 155 -104 158 -112 2 -4 8 -8 14 -8 17 0 168 -132 272
-237 61 -62 158 -170 212 -238 27 -33 52 -61 56 -63 4 -2 8 -8 8 -13 0 -5 21
-37 48 -71 84 -111 202 -282 197 -286 -4 -4 -96 67 -120 92 -59 64 -341 306
-355 306 -24 0 -11 -17 159 -195 294 -310 478 -555 608 -804 45 -87 104 -218
119 -266 2 -5 22 -63 44 -129 22 -65 42 -128 45 -140 2 -11 18 -75 35 -141 17
-66 32 -131 34 -145 2 -14 5 -25 6 -25 1 0 3 -9 4 -20 2 -11 11 -60 21 -110
10 -49 18 -99 19 -110 1 -11 5 -29 9 -40 3 -11 9 -47 12 -80 3 -33 7 -67 10
-75 2 -8 7 -35 9 -60 3 -25 7 -66 10 -92 3 -27 8 -69 11 -95 3 -27 7 -66 10
-88 12 -107 15 -136 20 -215 3 -47 8 -98 10 -115 8 -61 18 -223 19 -307 1 -49
3 -88 6 -88 3 0 4 -46 4 -102 -2 -156 -2 -152 -18 -139 -15 13 -54 90 -60 119
-1 9 -5 24 -8 32 -3 8 -14 42 -23 75 -9 33 -22 76 -28 95 -6 19 -12 42 -13 50
-1 8 -5 25 -8 38 -11 41 -17 67 -22 92 -2 14 -11 57 -19 95 -19 95 -37 194
-40 230 -7 79 -18 152 -30 189 -12 40 -12 41 -22 16 -14 -32 -8 -197 12 -335
9 -70 16 -199 10 -193 -4 3 -18 48 -32 100 -37 138 -41 158 -36 158 3 0 1 6
-5 13 -5 6 -13 26 -16 42 -5 27 -13 62 -29 131 -3 12 -8 37 -11 55 -3 19 -7
43 -9 54 -3 11 -7 36 -11 55 -3 19 -8 46 -11 60 -3 14 -7 40 -10 59 -2 18 -7
41 -9 50 -3 9 -7 34 -10 56 -11 88 -16 121 -20 150 -3 17 -8 53 -11 80 -8 62
-25 166 -41 250 -3 17 -7 35 -8 42 -1 7 -6 16 -10 20 -8 8 -1 -289 9 -372 2
-22 7 -67 9 -100 6 -66 12 -114 27 -222 6 -40 12 -83 13 -95 2 -13 6 -30 9
-38 5 -13 15 -70 23 -130 1 -8 5 -28 8 -45 11 -48 37 -207 41 -241 1 -17 6
-51 10 -75 8 -45 9 -55 20 -179 22 -250 28 -416 29 -735 0 -159 -2 -310 -4
-335 -4 -47 -18 -90 -30 -90 -10 0 -74 138 -86 185 -1 6 -16 48 -32 95 -16 47
-33 99 -38 115 -4 17 -8 32 -9 35 -1 3 -8 33 -15 68 -8 34 -17 62 -20 62 -3 0
-6 8 -6 18 0 32 -47 247 -55 257 -5 5 -10 -3 -10 -20 -4 -68 0 -206 6 -237 3
-18 8 -46 11 -63 2 -16 15 -77 29 -134 l26 -104 -41 -131 c-23 -72 -46 -144
-51 -161 -5 -16 -21 -66 -35 -109 -14 -43 -27 -84 -29 -90 -1 -6 -5 -18 -8
-26 -3 -8 -13 -40 -23 -70 -9 -30 -30 -89 -46 -130 -16 -41 -31 -79 -32 -85
-14 -51 -108 -268 -130 -299 -29 -43 -30 -18 -3 55 13 35 24 66 24 69 1 3 10
37 21 75 28 93 60 213 66 248 2 15 8 37 11 48 5 15 4 19 -4 14 -14 -8 -46 -77
-102 -220 -22 -55 -44 -109 -49 -120 -5 -11 -25 -58 -44 -105 -41 -101 -60
-147 -92 -217 -65 -144 -96 -209 -105 -223 -5 -8 -15 -26 -21 -40 -35 -73 -95
-156 -106 -145 -3 2 7 44 23 95 1 3 7 19 14 35 6 17 28 73 47 125 20 52 41
109 47 125 7 17 12 32 12 35 1 3 9 32 20 65 10 33 19 65 21 70 1 6 7 29 13 53
7 24 14 55 16 70 2 15 6 47 10 72 6 42 5 44 -9 25 -8 -11 -16 -25 -16 -31 0
-6 -14 -44 -30 -85 -17 -41 -30 -74 -30 -74 1 0 -3 -13 -9 -28 -6 -16 -11 -30
-11 -33 0 -2 -21 -49 -47 -104 -29 -63 -50 -97 -56 -91 -5 5 -8 122 -7 283 1
150 3 364 4 475 1 111 -1 210 -4 219 -4 11 -15 -9 -30 -57 -13 -41 -25 -78
-26 -84 -1 -5 -12 -44 -25 -85 -13 -41 -24 -77 -24 -80 -1 -8 -46 -143 -53
-160 -3 -8 -7 -19 -7 -25 -1 -5 -5 -17 -8 -25 -11 -27 -57 -155 -60 -165 -1
-5 -4 -12 -7 -15 -3 -3 -11 -22 -19 -44 -25 -71 -61 -146 -70 -146 -5 0 4 48
20 108 16 59 31 116 34 127 2 11 12 47 21 80 9 33 18 67 19 75 2 8 4 15 5 15
1 0 3 7 5 15 2 8 11 47 20 85 20 83 26 114 28 138 1 9 4 17 7 17 3 0 6 8 6 18
1 32 26 167 34 183 11 19 -5 48 -19 34 -5 -6 -12 -21 -15 -35 -2 -14 -11 -44
-20 -67 -8 -24 -13 -43 -10 -43 2 0 0 -8 -5 -18 -6 -11 -12 -30 -14 -43 -3
-13 -10 -44 -17 -69 -7 -25 -14 -52 -15 -60 -2 -8 -4 -16 -5 -17 -2 -2 -4 -7
-5 -13 -1 -5 -4 -13 -5 -17 -1 -5 -2 -10 -2 -13 0 -7 -197 -595 -215 -640 -5
-14 -21 -56 -34 -95 -13 -38 -27 -71 -31 -73 -5 -2 -8 -10 -8 -18 0 -38 -144
-321 -180 -354 -3 -3 -20 -26 -38 -52 -62 -89 -195 -230 -300 -316 -73 -60
-206 -152 -221 -152 -5 0 -11 -4 -13 -8 -10 -24 -250 -127 -275 -118 -10 4
-12 18 -8 53 6 48 24 170 31 208 2 11 7 40 10 65 3 25 8 48 10 52 5 8 17 84
18 111 0 9 4 17 9 17 4 0 6 3 4 8 -3 4 1 36 9 72 7 36 16 80 19 97 2 18 9 52
14 75 14 65 25 130 25 161 1 15 3 27 7 27 3 0 5 10 6 23 1 12 4 38 7 57 5 33
4 34 -10 15 -9 -11 -29 -49 -46 -85 -16 -36 -40 -85 -51 -110 -25 -53 -129
-242 -157 -285 -11 -16 -23 -37 -27 -45 -4 -8 -11 -19 -16 -25 -4 -5 -47 -68
-93 -140 -107 -163 -116 -175 -132 -175 -16 0 -7 45 26 130 3 8 6 17 7 20 1 3
9 22 18 43 28 65 97 272 100 303 2 17 7 35 11 42 4 7 2 12 -4 12 -6 0 -14 -10
-19 -22 -5 -13 -47 -102 -94 -199 -48 -97 -89 -188 -93 -203 -3 -14 -10 -26
-15 -26 -5 0 -9 -5 -9 -12 0 -19 -180 -378 -218 -435 -20 -31 -42 -53 -53 -53
-19 0 -16 15 30 162 12 37 21 69 21 70 -1 2 6 21 16 43 42 102 113 320 105
328 -9 9 -44 -42 -78 -113 -30 -63 -95 -211 -98 -224 -1 -6 -5 -18 -9 -26 -14
-33 -88 -246 -89 -257 0 -7 -21 -54 -46 -105 -30 -60 -53 -94 -64 -96 -16 -3
-18 1 -13 30 5 34 10 52 23 86 3 9 7 22 8 27 0 6 4 17 8 25 8 21 57 185 62
211 2 11 7 29 10 40 4 12 2 19 -7 19 -13 0 -90 -153 -139 -275 -13 -33 -27
-62 -32 -63 -4 -2 -7 -10 -7 -18 0 -21 -95 -200 -137 -257 -51 -70 -107 -109
-139 -97 -13 5 -24 7 -24 4 0 -17 -69 56 -103 109 -44 67 -140 256 -152 300
-2 4 -4 9 -5 12 -1 3 -3 8 -4 13 -1 4 -10 24 -19 46 -9 21 -17 44 -17 50 0 7
-4 16 -9 22 -4 5 -25 51 -46 102 -21 51 -42 95 -47 98 -18 11 0 -117 23 -158
5 -10 9 -28 9 -41 0 -13 3 -27 7 -31 4 -3 8 -12 9 -19 2 -7 16 -55 33 -107 17
-52 31 -101 31 -107 0 -44 -94 48 -105 104 -5 21 -9 43 -11 48 -4 14 -64 176
-74 200 -4 11 -34 85 -65 165 -70 176 -123 290 -135 290 -23 0 1 -89 90 -335
65 -180 92 -275 76 -275 -8 0 -52 44 -59 60 -4 8 -16 29 -27 45 -64 97 -340
665 -324 665 3 0 -2 7 -10 16 -9 8 -16 22 -16 30 0 22 -39 94 -51 94 -6 0 -8
-3 -6 -7 3 -5 8 -24 11 -43 9 -58 15 -80 32 -139 9 -31 17 -62 17 -68 0 -7 4
-13 9 -13 4 0 8 -11 8 -25 0 -14 5 -25 11 -25 5 0 8 -3 6 -8 -3 -4 14 -48 38
-97 24 -50 40 -94 37 -99 -4 -8 -59 45 -102 100 -102 128 -308 487 -445 773
-10 23 -27 29 -20 9 3 -12 29 -145 39 -208 2 -14 7 -32 10 -40 2 -8 7 -34 10
-58 3 -24 8 -47 10 -51 3 -4 7 -25 10 -47 3 -21 10 -64 16 -94 6 -30 20 -107
31 -170 64 -357 65 -389 11 -375 -15 4 -34 8 -42 10 -21 4 -226 111 -240 125
-3 3 -25 19 -50 35 -25 17 -46 33 -48 38 -2 4 -10 7 -17 7 -8 0 -18 6 -22 13
-4 7 -19 20 -33 29 -53 35 -210 184 -203 192 4 3 1 6 -4 6 -13 0 -153 173
-153 189 0 6 -5 11 -10 11 -6 0 -13 8 -17 18 -3 9 -14 28 -23 42 -37 55 -79
141 -119 245 -23 61 -46 119 -51 130 -11 22 -53 134 -56 150 -2 6 -30 87 -62
180 -33 94 -60 173 -61 177 -5 22 -9 36 -20 68 -7 19 -14 44 -17 56 -2 11 -13
49 -24 83 -18 56 -36 119 -46 161 -30 126 -52 180 -65 159 -8 -14 -4 -66 12
-139 5 -25 11 -55 14 -68 2 -13 6 -31 9 -40 3 -9 8 -33 12 -52 8 -44 12 -64
14 -67 2 -2 3 -6 4 -10 1 -5 5 -17 9 -28 3 -11 8 -31 11 -45 3 -14 17 -65 31
-115 15 -49 28 -94 29 -100 1 -5 5 -16 10 -23 4 -7 5 -19 2 -27 -3 -8 -2 -15
3 -15 4 0 8 -6 9 -12 1 -7 4 -30 7 -51 4 -20 4 -37 2 -37 -8 0 -51 89 -76 155
-13 33 -27 69 -31 80 -30 73 -60 156 -60 168 0 7 -3 17 -7 21 -5 4 -8 11 -9
14 0 7 -55 186 -78 257 -7 22 -29 92 -47 157 -18 64 -36 115 -39 113 -3 -2 -4
-21 -3 -42 6 -82 11 -1018 6 -1027 -7 -10 -52 91 -53 117 0 9 -4 17 -8 17 -5
0 -9 6 -9 13 0 6 -16 57 -36 111 -21 54 -37 103 -37 109 0 5 -6 23 -14 40 -8
18 -26 64 -41 104 -16 40 -31 70 -36 68 -7 -5 -4 -45 7 -95 3 -14 8 -36 10
-49 3 -14 14 -58 26 -100 11 -41 21 -80 23 -86 1 -5 5 -17 8 -25 5 -15 70
-210 72 -220 2 -7 15 -39 43 -100 51 -117 60 -190 16 -137 -25 31 -36 50 -103
182 -66 130 -103 211 -184 400 -23 54 -98 250 -134 349 -30 83 -65 148 -73
135 -5 -6 -4 -19 0 -28 5 -9 18 -59 30 -111 12 -52 28 -116 37 -141 8 -25 16
-52 17 -60 2 -8 5 -21 8 -29 22 -63 49 -162 45 -166 -6 -6 -57 91 -95 181 -45
106 -48 114 -62 155 -7 19 -16 44 -21 55 -16 37 -91 269 -125 390 -10 34 -38
149 -49 199 -16 74 -11 268 11 411 24 162 37 323 26 309 -13 -14 -49 -146 -77
-274 -1 -8 -8 -35 -15 -60 -7 -25 -14 -54 -17 -65 -8 -38 -11 -50 -13 -50 -1
0 -3 -7 -5 -15 -1 -8 -9 -35 -16 -60 -7 -25 -13 -47 -14 -50 -21 -87 -101
-298 -121 -319 -11 -12 -15 -10 -24 13 -5 15 -13 58 -18 94 -9 88 -8 638 2
772 5 58 10 121 11 140 3 40 11 114 25 215 6 39 12 88 15 110 2 22 7 49 9 60
2 11 7 43 10 70 4 28 9 57 11 65 2 8 7 35 10 60 2 25 7 56 10 70 6 29 12 70
20 120 2 19 7 46 10 60 2 13 7 42 10 65 3 22 8 51 10 65 3 14 7 44 10 68 3 23
7 61 10 85 10 72 16 130 20 187 2 30 7 91 10 135 11 131 12 225 3 231 -5 3 -8
2 -7 -3 1 -4 0 -10 -1 -13 -6 -16 -20 -91 -26 -145 -4 -27 -8 -54 -11 -58 -4
-7 -9 -38 -18 -112 -2 -16 -5 -43 -8 -60 -8 -46 -19 -126 -22 -165 -2 -19 -4
-35 -5 -35 -1 0 -3 -11 -5 -25 -1 -14 -5 -36 -8 -50 -2 -14 -8 -45 -12 -70 -4
-25 -9 -54 -11 -65 -4 -17 -20 -95 -40 -195 -3 -14 -25 -101 -50 -195 -24 -93
-46 -178 -48 -187 -3 -9 -12 -29 -21 -45 -10 -17 -14 -20 -11 -8 7 26 13 66
21 135 4 30 9 66 11 80 10 61 14 320 5 320 -21 0 -30 -28 -36 -105 -4 -65 -14
-146 -20 -165 -2 -8 -7 -31 -10 -50 -3 -19 -17 -83 -31 -143 -14 -59 -27 -115
-29 -125 -2 -9 -4 -18 -5 -19 -2 -2 -3 -6 -4 -10 -29 -110 -78 -267 -87 -277
-4 -5 -5 -15 -2 -22 3 -8 0 -14 -6 -14 -6 0 -11 -8 -11 -19 0 -10 -10 -31 -22
-46 -20 -26 -22 -26 -29 -9 -3 11 -5 37 -3 59 16 174 22 254 29 390 3 61 8
146 11 190 3 44 7 107 9 140 2 33 6 83 9 110 3 28 8 73 11 100 2 28 8 77 11
110 4 33 7 66 7 73 0 6 5 12 11 12 6 0 6 4 -1 11 -7 7 -8 22 -3 42 5 18 11 55
15 82 3 28 13 91 21 140 9 50 18 104 21 120 7 42 11 60 13 60 1 0 3 9 5 20 1
11 5 34 9 50 3 17 8 40 10 53 3 13 7 31 10 40 3 9 7 28 10 42 3 14 9 40 15 58
5 17 7 32 5 32 -3 0 -2 6 3 13 4 6 8 14 8 17 4 28 30 118 38 128 5 6 7 12 4
12 -3 0 8 39 24 88 17 48 32 92 33 97 4 14 16 46 26 70 5 11 21 49 35 85 52
131 317 540 410 634 9 9 14 16 11 16 -3 0 5 10 17 23 12 12 45 49 72 81 28 33
66 75 85 95 35 37 139 150 189 206 32 36 64 85 55 85 -15 0 -127 -96 -255
-220 -202 -196 -227 -219 -233 -213 -5 5 18 56 35 77 19 22 144 199 156 218 6
12 15 23 20 27 5 3 22 24 39 46 146 197 402 458 587 598 81 61 154 106 249
153 48 24 89 44 92 44 2 0 17 5 33 12 15 6 30 12 33 13 3 1 38 11 79 24 66 20
152 40 234 55 15 3 58 8 95 12 37 3 78 8 92 10 14 2 86 6 160 10 74 4 136 7
137 8 5 4 348 -2 453 -8z"/>
<path d="M3950 8350 c0 -5 15 -20 33 -32 32 -24 51 -34 115 -60 17 -7 32 -16
32 -20 0 -5 7 -8 15 -8 8 0 15 -4 15 -10 0 -5 5 -10 12 -10 26 0 285 -216 274
-228 -6 -6 -284 136 -313 160 -7 6 -13 7 -13 3 0 -5 -8 -1 -17 8 -10 8 -21 16
-26 16 -4 1 -36 14 -72 30 -136 62 -245 97 -365 117 -54 9 -273 9 -315 -1 -40
-9 -45 -10 -85 -19 -44 -9 -115 -35 -160 -58 l-35 -18 30 5 c17 2 57 7 90 10
33 3 83 7 110 10 l50 4 -40 -15 c-22 -9 -53 -22 -70 -29 -16 -7 -77 -32 -135
-55 -131 -52 -245 -105 -283 -132 l-29 -21 26 -14 c14 -7 26 -18 26 -23 0 -11
-64 -56 -135 -96 -27 -15 -55 -32 -61 -38 -6 -6 -26 -22 -45 -36 -57 -43 -141
-133 -155 -167 -25 -58 -15 -58 50 2 27 25 51 43 54 41 4 -4 -92 -143 -107
-156 -21 -16 -82 -123 -79 -138 3 -14 13 -17 53 -15 28 1 64 4 80 7 17 3 50 8
74 12 l44 6 -49 -63 c-27 -35 -59 -75 -72 -89 -36 -38 -188 -243 -195 -262 -4
-10 -11 -18 -17 -18 -5 0 -10 -4 -10 -10 0 -5 -17 -38 -38 -72 -48 -79 -141
-273 -148 -308 0 -3 -4 -12 -7 -20 -12 -29 -46 -166 -52 -210 -10 -77 -17
-225 -9 -218 3 4 8 24 10 45 6 71 47 217 91 323 27 65 31 75 52 122 12 26 21
50 21 52 0 6 72 126 75 126 5 0 -7 -37 -43 -140 -33 -93 -65 -212 -81 -305 -6
-33 -13 -71 -16 -85 -3 -14 -7 -43 -10 -65 -3 -22 -8 -56 -11 -75 -2 -19 -7
-53 -10 -75 -2 -22 -7 -56 -9 -75 -2 -19 -7 -64 -10 -100 -3 -36 -8 -76 -10
-90 -2 -14 -7 -47 -10 -75 -3 -27 -8 -63 -10 -80 -2 -16 -7 -61 -10 -100 -4
-38 -9 -83 -11 -100 -11 -84 -15 -185 -7 -185 6 0 18 16 29 35 10 19 21 35 24
35 3 0 11 15 19 33 8 17 17 34 21 37 6 4 61 103 107 190 l13 25 1 -25 c1 -14
2 -41 4 -60 1 -19 5 -134 9 -255 12 -361 19 -495 31 -610 3 -27 8 -75 10 -105
3 -30 8 -68 10 -85 3 -16 7 -48 11 -70 23 -158 68 -375 84 -405 5 -10 7 -19 5
-22 -4 -3 38 -130 63 -193 45 -109 167 -331 176 -317 5 8 13 45 22 102 8 45
14 123 18 234 3 60 10 114 15 119 14 14 40 -19 107 -143 32 -58 67 -121 77
-140 11 -19 33 -60 50 -90 16 -30 34 -58 39 -61 5 -3 8 -8 6 -10 -2 -3 34 -67
169 -294 112 -187 362 -540 453 -639 19 -21 45 -49 57 -62 12 -13 24 -24 27
-24 12 0 32 102 41 213 8 93 14 126 23 144 8 14 11 13 25 -8 9 -13 23 -51 32
-84 9 -33 18 -69 21 -80 3 -11 6 -26 6 -32 1 -7 4 -13 8 -13 3 0 6 -9 7 -20 2
-29 92 -237 108 -250 12 -10 14 -7 12 22 -2 18 -6 39 -11 46 -4 6 -5 12 -2 12
2 0 0 15 -5 33 -6 17 -12 39 -14 47 -8 35 -25 100 -45 175 -37 140 -49 190
-44 194 10 11 99 -126 177 -272 26 -49 54 -98 61 -110 14 -23 53 -94 114 -207
19 -36 42 -76 51 -90 8 -14 21 -34 27 -45 108 -198 213 -384 293 -517 9 -14
31 -52 50 -85 63 -109 172 -282 186 -293 10 -9 27 11 78 97 124 207 276 473
269 473 -4 0 -2 4 4 8 13 8 56 79 81 135 10 20 21 37 25 37 5 0 8 4 8 9 0 6
15 36 34 68 18 32 44 78 58 103 14 25 53 94 86 153 34 60 62 113 62 118 0 5 4
9 8 9 5 0 14 16 22 35 8 19 16 35 20 35 3 0 19 25 35 56 17 30 35 63 40 72 57
96 92 151 107 171 l18 24 0 -27 c0 -31 -27 -159 -41 -196 -10 -26 -16 -53 -26
-105 -3 -16 -9 -38 -14 -47 -5 -9 -8 -21 -7 -25 0 -4 -2 -19 -5 -33 -4 -14 -9
-36 -11 -50 -3 -14 -7 -35 -10 -48 -8 -38 10 -24 32 26 28 65 90 231 97 262 1
3 14 43 29 90 16 47 29 92 30 100 1 9 5 20 9 27 4 6 8 23 9 37 4 43 23 37 24
-8 3 -169 37 -366 63 -366 16 0 151 141 151 158 0 4 9 14 20 22 11 8 20 18 20
23 0 5 6 15 13 22 64 73 407 588 407 614 0 5 3 11 8 13 8 3 82 125 82 135 0 4
6 14 14 22 7 9 28 45 47 81 18 36 36 67 39 70 3 3 29 55 59 115 56 116 87 165
101 165 9 0 16 -17 24 -60 3 -14 8 -36 11 -50 3 -14 8 -74 11 -135 3 -60 7
-121 8 -135 2 -14 4 -35 4 -47 1 -13 8 -23 15 -23 12 0 79 104 93 145 4 11 12
27 19 35 23 29 102 239 136 360 7 25 14 50 15 55 13 44 64 302 69 345 7 58 9
77 19 175 18 173 26 361 29 718 3 203 5 240 19 254 15 15 19 12 50 -31 37 -52
106 -168 140 -233 24 -46 39 -56 33 -22 -2 12 -7 62 -10 113 -7 111 -12 171
-20 250 -12 123 -16 162 -22 201 -3 22 -6 54 -8 70 -2 30 -11 99 -21 165 -2
19 -7 51 -10 70 -2 19 -9 60 -14 90 -5 30 -12 71 -15 90 -3 19 -12 63 -20 96
-8 34 -16 73 -19 85 -2 13 -14 52 -25 87 -35 107 -55 196 -43 188 20 -12 144
-299 158 -365 3 -13 9 -31 13 -40 5 -9 11 -29 14 -46 15 -83 33 -128 50 -122
13 4 17 81 5 108 -4 9 -9 32 -11 50 -2 19 -6 41 -9 49 -3 8 -15 49 -28 90 -24
81 -143 334 -191 404 -16 24 -29 47 -29 50 0 4 -5 12 -10 19 -6 7 -39 53 -75
102 -35 50 -74 102 -87 116 -13 15 -41 48 -63 75 -22 26 -45 52 -51 58 -6 6
-19 24 -29 39 -27 41 -11 51 61 37 110 -22 167 -29 176 -24 15 9 -59 123 -159
246 -66 81 -68 103 -3 44 74 -66 109 -66 58 0 -59 76 -209 214 -234 214 -4 0
-15 6 -23 14 -9 7 -41 26 -71 42 -66 35 -73 44 -54 65 7 8 14 19 14 24 0 31
-180 123 -345 175 -38 13 -83 30 -100 38 -16 9 -33 16 -37 17 -5 0 -8 5 -8 10
0 6 17 9 38 8 79 -4 174 -13 182 -18 5 -3 12 0 16 7 4 7 4 10 -1 6 -4 -4 -13
-4 -19 0 -6 5 -31 15 -56 22 -25 7 -51 18 -58 23 -7 6 -15 7 -18 4 -3 -3 -16
-2 -28 3 -22 8 -69 17 -136 26 -59 8 -254 10 -280 3 -14 -4 -61 -14 -105 -24
-44 -10 -84 -21 -90 -25 -5 -4 -28 -13 -50 -20 -70 -22 -281 -130 -420 -216
-104 -64 -141 -58 -68 11 28 28 62 58 75 68 37 30 197 137 203 137 4 0 21 11
39 25 18 14 36 25 39 25 9 0 47 38 47 46 0 23 -204 -60 -251 -102 -8 -8 -19
-14 -23 -14 -25 0 -276 -234 -276 -257 0 -11 -59 -73 -70 -73 -5 0 -40 62 -78
138 -74 149 -93 182 -104 182 -9 0 -70 -100 -60 -100 4 0 2 -4 -4 -8 -7 -4
-28 -43 -48 -87 -41 -92 -51 -110 -58 -110 -3 0 -66 59 -141 131 -74 72 -149
140 -166 150 -17 10 -31 22 -31 26 0 4 -4 8 -9 8 -5 0 -33 16 -63 35 -29 20
-64 38 -78 42 -14 3 -35 13 -47 21 -13 8 -23 11 -23 8 0 -4 -8 -3 -17 2 -28
14 -83 22 -83 12z m-421 -587 c6 6 11 7 11 2 0 -6 17 -10 37 -9 42 1 142 -23
161 -38 6 -6 12 -8 12 -4 0 15 260 -136 268 -156 2 -5 8 -8 14 -8 5 0 15 -6
23 -12 43 -42 152 -118 168 -118 14 0 -26 50 -117 145 -47 50 -86 93 -86 98 0
12 29 8 60 -8 28 -15 126 -95 116 -95 -3 0 2 -8 12 -18 17 -19 29 -32 142
-162 124 -143 232 -242 247 -226 11 10 -19 66 -51 94 -39 35 -96 107 -96 121
0 6 -3 11 -7 11 -11 0 -32 48 -25 54 10 10 138 -103 308 -272 l54 -53 92 90
c120 115 150 143 200 183 22 18 46 38 52 44 7 6 22 15 35 19 20 6 21 5 13 -12
-6 -10 -23 -32 -39 -50 -65 -72 -80 -91 -120 -151 -75 -111 -48 -103 75 24 64
66 128 133 142 150 14 16 55 65 92 109 37 44 74 85 81 91 38 32 100 67 123 70
24 2 25 1 10 -14 -9 -9 -26 -28 -37 -42 -11 -14 -37 -43 -57 -65 -54 -58 -105
-125 -95 -125 5 0 32 16 59 35 27 19 58 40 68 47 10 7 31 22 45 34 45 36 150
104 160 104 5 0 11 4 13 9 4 11 128 74 128 65 0 -4 6 -2 13 3 6 6 23 13 37 17
28 8 210 19 210 12 0 -2 -39 -18 -86 -35 -47 -17 -97 -37 -112 -45 -23 -12
-24 -14 -6 -19 10 -4 105 -6 209 -6 177 1 211 -1 290 -16 39 -8 53 -21 37 -37
-9 -9 -24 -8 -64 4 -78 24 -108 29 -108 21 1 -13 39 -37 145 -93 197 -104 365
-233 365 -280 0 -25 -23 -26 -58 -2 -56 39 -172 81 -172 63 0 -9 44 -49 90
-81 19 -14 37 -27 40 -30 3 -3 22 -18 43 -33 95 -71 100 -84 76 -167 -7 -25
-13 -47 -14 -50 -4 -20 -45 -99 -53 -104 -10 -6 -81 43 -132 91 -38 37 -140
109 -182 129 -21 10 -38 21 -38 26 0 4 -6 8 -14 8 -7 0 -39 12 -70 26 -31 14
-65 27 -74 29 -9 2 -17 4 -17 5 0 2 -23 8 -75 19 -93 21 -200 8 -204 -24 0 -5
10 -11 24 -11 52 -3 117 -14 170 -29 30 -9 62 -18 70 -20 8 -2 16 -4 18 -5 1
-2 7 -4 12 -5 6 -1 12 -4 15 -5 3 -1 8 -3 13 -4 32 -7 111 -43 127 -58 19 -18
19 -18 -3 -19 -12 -1 -28 -2 -34 -3 -7 -1 -21 2 -30 6 -10 5 -18 5 -18 0 0 -4
-15 -7 -32 -5 -57 6 -202 6 -228 0 -14 -3 -35 -8 -48 -11 -48 -11 -159 -82
-209 -135 -77 -80 -94 -76 -89 22 1 26 0 47 -3 47 -12 0 -33 -17 -33 -26 0 -5
-7 -25 -15 -44 -17 -40 -54 -140 -57 -155 -1 -5 -4 -14 -8 -20 -3 -5 -10 -26
-16 -45 -6 -19 -24 -80 -42 -135 -17 -55 -33 -107 -35 -115 -2 -8 -4 -15 -5
-15 -1 0 -3 -7 -5 -15 -1 -8 -6 -26 -10 -41 -5 -22 2 -32 62 -83 37 -31 104
-75 148 -96 77 -37 227 -86 290 -95 17 -3 41 -7 55 -11 14 -3 71 -7 128 -9 90
-3 103 -1 100 13 -3 14 -48 31 -153 57 -27 7 -23 9 45 25 73 17 153 45 211 75
16 9 32 16 36 17 11 3 39 26 84 68 65 61 60 109 -7 58 -16 -12 -31 -25 -34
-28 -3 -3 -18 -14 -33 -23 -34 -22 -57 -18 -33 5 9 9 16 20 16 25 0 7 22 34
98 119 15 17 50 57 77 89 49 56 154 165 160 165 2 0 -1 -16 -7 -36 -14 -51 -4
-92 40 -160 44 -70 62 -105 65 -124 2 -8 5 -19 9 -25 3 -5 9 -35 12 -65 3 -30
8 -66 11 -80 7 -38 15 -169 20 -315 4 -99 2 -124 -6 -105 -6 14 -12 32 -14 40
-2 8 -4 15 -5 15 -1 0 -4 11 -6 25 -11 61 -25 136 -27 150 -7 41 -41 130 -50
130 -9 0 -4 -175 7 -240 2 -14 7 -50 10 -80 4 -30 9 -68 11 -85 3 -16 8 -48
11 -70 3 -22 8 -56 11 -75 19 -117 -1 -314 -35 -342 -15 -13 -21 -8 -27 22
-10 53 -25 47 -85 -29 -14 -17 -31 -38 -37 -46 -7 -7 -13 -17 -13 -21 0 -11
-84 -112 -97 -118 -20 -8 -15 16 18 95 18 41 42 102 54 137 29 78 13 83 -42
12 -43 -56 -66 -65 -58 -22 14 77 17 132 7 132 -17 0 -45 -62 -95 -210 -25
-74 -53 -153 -62 -174 l-16 -39 -15 28 c-15 30 -45 125 -39 125 2 0 -2 18 -10
40 -8 22 -14 42 -14 45 -2 41 -64 185 -80 185 -6 0 -8 -10 -6 -22 3 -13 7 -36
10 -53 10 -55 27 -120 36 -140 18 -42 36 -133 29 -145 -10 -17 -39 -6 -46 17
-16 50 -44 105 -86 171 -27 40 -48 77 -48 82 0 6 -4 10 -8 10 -4 0 -15 12 -24
28 -49 83 -194 265 -291 367 l-48 50 106 -214 c58 -118 105 -220 105 -227 0
-6 7 -24 15 -40 15 -30 14 -40 -4 -29 -9 5 -34 49 -85 152 -12 24 -33 37 -39
25 -2 -4 9 -47 25 -97 35 -110 47 -243 33 -364 -9 -79 -43 -239 -57 -264 -6
-12 -10 -22 -8 -22 11 0 -75 -215 -110 -275 -35 -59 -79 -89 -126 -84 -57 5
-193 77 -251 133 -29 28 -53 54 -53 60 0 5 -4 11 -8 13 -11 5 -46 56 -81 120
l-31 57 36 28 c229 176 391 326 453 417 32 46 33 50 21 87 -7 21 -16 39 -19
39 -3 0 -12 12 -18 28 -17 37 -161 227 -215 284 -93 96 -174 108 -258 39 l-25
-21 47 3 c27 1 48 5 48 9 0 3 9 4 20 1 11 -3 20 -10 20 -17 -1 -16 -25 -46
-38 -46 -6 0 -12 -4 -14 -9 -5 -15 -198 -110 -211 -105 -7 3 -30 27 -52 54
-73 88 -103 86 -173 -10 l-42 -58 -108 55 c-126 65 -174 99 -170 120 3 17 38
28 38 12 0 -4 7 -6 15 -3 8 3 28 1 45 -4 37 -14 38 -4 0 26 -39 31 -105 38
-155 17 -83 -35 -215 -196 -316 -382 l-44 -82 166 -163 c92 -90 203 -190 247
-223 44 -33 87 -71 95 -85 14 -22 14 -28 -5 -65 -65 -127 -177 -242 -285 -292
-94 -43 -151 -45 -193 -4 -17 15 -30 31 -30 36 0 4 -8 19 -19 33 -22 33 -95
217 -117 298 -41 154 -56 241 -59 359 -2 89 0 102 51 270 17 58 24 96 15 91
-3 -2 -28 -38 -56 -80 -50 -76 -72 -95 -60 -53 3 12 46 104 95 205 50 101 90
190 90 198 0 7 5 14 12 14 9 0 9 3 0 12 -9 9 -16 6 -31 -13 -10 -13 -29 -35
-41 -49 -12 -14 -31 -38 -43 -53 -12 -16 -28 -36 -36 -44 -14 -14 -153 -201
-178 -240 -7 -10 -24 -36 -39 -57 -38 -59 -114 -205 -114 -221 0 -8 -5 -15
-11 -15 -5 0 -8 -3 -6 -7 2 -5 -2 -21 -9 -38 -15 -34 -15 -24 11 210 4 33 9
74 10 90 2 17 4 30 5 30 1 0 4 16 6 35 l4 35 -17 -35 c-49 -106 -86 -219 -106
-330 -11 -56 -39 -102 -53 -87 -3 2 -6 20 -8 38 -7 65 -16 100 -61 259 -13 46
-51 146 -62 164 -18 28 -23 -71 -8 -151 5 -30 2 -29 -39 10 -93 89 -95 90 -91
71 2 -11 4 -20 5 -21 2 -2 3 -6 5 -10 4 -15 18 -49 58 -133 54 -117 58 -130
46 -130 -13 0 -37 24 -79 80 -110 147 -141 169 -154 114 -10 -37 -38 -16 -59
43 -35 97 -40 159 -20 253 8 41 17 93 19 115 2 22 6 56 9 75 12 83 20 273 16
353 -1 9 -5 17 -10 17 -9 0 -19 -44 -27 -114 -8 -75 -15 -110 -29 -129 -17
-24 -26 -9 -25 40 0 21 0 45 0 53 -3 84 16 308 31 365 11 42 69 158 81 163 5
2 8 9 8 16 0 7 7 27 16 45 9 17 17 53 18 81 1 27 4 52 8 55 3 4 21 -15 39 -41
17 -26 39 -55 48 -64 9 -9 39 -42 66 -74 28 -32 70 -79 94 -105 51 -54 105
-130 98 -138 -5 -5 -48 15 -57 26 -9 11 -103 71 -112 71 -22 0 -3 -33 47 -78
70 -64 209 -136 285 -147 3 0 10 -3 15 -7 6 -3 26 -6 45 -6 63 0 64 0 50 -17
-12 -15 -57 -30 -116 -38 -46 -7 -79 -26 -66 -39 11 -11 136 -13 182 -3 13 2
42 7 65 10 228 33 377 98 499 220 48 48 54 59 46 76 -6 10 -9 19 -6 19 2 0 -5
24 -15 53 -11 28 -22 59 -24 67 -9 36 -97 297 -105 312 -6 10 -10 24 -10 31 0
19 -40 100 -47 93 -3 -3 -7 -27 -8 -53 -2 -26 -4 -54 -4 -60 -2 -27 -28 -11
-91 55 -42 45 -86 78 -125 98 -33 16 -62 29 -65 29 -3 0 -9 3 -15 6 -9 6 -39
14 -100 27 -38 7 -240 8 -255 1 -8 -4 -37 -15 -63 -23 -35 -11 -47 -12 -44 -3
4 13 80 67 100 71 7 2 26 9 42 15 103 43 258 82 338 84 35 1 35 13 -1 31 -29
15 -136 16 -197 2 -52 -12 -180 -59 -183 -68 -2 -4 -12 -8 -23 -8 -10 0 -19
-4 -19 -10 0 -5 -5 -10 -11 -10 -11 0 -138 -76 -149 -89 -3 -3 -21 -18 -42
-33 -20 -15 -42 -33 -50 -40 -33 -32 -88 -68 -103 -68 -23 0 -64 99 -72 171
l-6 60 55 52 c30 29 87 77 126 106 40 30 72 59 72 63 0 17 -43 7 -113 -26
-102 -48 -117 -52 -117 -29 0 48 167 180 337 266 171 87 224 132 108 92 -36
-13 -73 -22 -83 -21 -17 3 -31 35 -15 37 4 0 17 3 28 5 11 2 54 7 95 9 41 3
90 7 108 8 17 2 32 -1 32 -6 0 -4 5 -5 11 -2 5 4 65 8 133 9 168 4 184 16 74
56 -35 13 -70 25 -79 27 -9 1 -29 8 -45 14 -16 7 -33 11 -37 10 -5 -1 -6 3 -2
8 3 6 15 7 29 1 15 -5 27 -5 35 3z m41 -1007 c58 -2 122 -5 143 -5 43 -1 39 2
187 -160 79 -86 150 -177 150 -190 0 -3 -4 -13 -10 -21 -10 -16 -104 -21 -178
-9 -26 4 -65 11 -86 14 -22 4 -51 11 -65 17 -14 5 -33 11 -42 13 -37 8 -109
47 -160 87 -110 86 -226 224 -206 244 8 8 135 22 152 17 6 -2 58 -5 115 -7z
m2631 -6 c22 -4 42 -10 45 -13 24 -24 -176 -231 -283 -291 -44 -25 -112 -53
-145 -60 -13 -3 -34 -7 -48 -10 -56 -13 -151 -18 -194 -12 -42 7 -46 10 -46
34 0 37 60 123 144 207 86 86 152 132 203 144 46 10 269 11 324 1z m-1356
-2686 c39 -8 79 -18 90 -23 11 -5 56 -21 100 -36 44 -15 94 -33 110 -40 17 -7
50 -20 75 -29 25 -9 51 -20 58 -25 14 -8 120 -299 129 -353 8 -45 22 -37 81
44 23 31 42 62 42 68 0 5 5 10 10 10 6 0 10 6 10 13 0 17 58 77 76 77 7 0 15
-4 15 -10 1 -5 2 -16 3 -22 5 -39 -166 -248 -215 -263 -16 -5 -29 1 -55 26
-32 31 -35 32 -61 18 -15 -8 -39 -25 -53 -39 -14 -14 -45 -41 -69 -60 -24 -19
-49 -41 -56 -47 -8 -7 -18 -13 -24 -13 -6 0 -11 -4 -11 -8 0 -4 -22 -19 -50
-33 -27 -13 -50 -27 -50 -31 0 -5 -5 -8 -10 -8 -6 0 -32 -11 -60 -24 -123 -60
-191 -56 -345 18 -78 38 -218 131 -265 177 -32 31 -108 89 -116 89 -5 0 -15
-9 -22 -21 -8 -12 -9 -18 -3 -14 8 4 7 -2 -1 -19 -6 -14 -18 -26 -27 -26 -18
0 -160 147 -200 207 -31 47 -36 96 -9 101 19 4 51 -37 98 -123 39 -70 71 -114
85 -114 11 -1 48 88 80 189 9 30 23 69 31 87 8 17 14 36 14 42 0 12 50 68 63
70 4 0 20 7 35 14 15 8 65 28 112 46 47 18 94 36 105 41 47 18 178 57 195 57
8 0 47 -6 85 -13z m-707 -230 c26 -7 23 -30 -10 -76 -21 -31 -38 -36 -38 -13
0 8 -4 15 -8 15 -5 0 -14 12 -21 26 -20 44 13 65 77 48z m1342 -4 c10 -5 17
-18 15 -27 -2 -10 -4 -23 -4 -29 -1 -6 -11 -24 -23 -39 l-21 -27 -18 33 c-18
35 -24 80 -12 92 9 10 42 8 63 -3z"/>
<path d="M4030 2006 c0 -13 6 -39 14 -57 8 -19 13 -36 13 -39 -1 -3 6 -18 16
-33 9 -15 15 -27 13 -27 -3 0 11 -28 31 -62 20 -35 41 -72 47 -83 21 -40 55
-77 65 -71 9 6 6 33 -6 66 -3 8 -7 20 -9 27 -4 19 -106 224 -118 236 -6 7 -19
24 -29 40 -21 33 -37 35 -37 3z"/>
<path d="M5488 2008 c-8 -7 -24 -29 -34 -48 -11 -19 -21 -37 -24 -40 -25 -25
-100 -229 -100 -273 0 -26 2 -28 16 -16 17 14 143 267 165 331 15 44 3 67 -23
46z"/>
</g>
</svg>
