<svg xmlns="http://www.w3.org/2000/svg" fill="none" viewBox="0 0 13 12"><path fill="#05C2B6" d="M.66.16V4.4h1.06v1.06h1.06V4.4h2.13V.16H.66ZM4.9 4.4v1.06h1.06v1.06H3.84V7.6H.66v4.25H4.9V7.6h3.18V6.53H7.03V5.47h2.13V4.4h1.06v1.06h1.06V4.4h1.06V.16H8.1V4.4H4.91Zm6.37 1.06v1.06h1.06V5.47h-1.06Zm0 1.06h-1.06V7.6h1.06V6.53Zm0 1.06v1.07h1.06V7.59h-1.06Zm0 1.07h-1.06V7.59H9.16v1.07H6.5v3.18h1.06V9.72H9.7v1.06h1.06V9.72h.53V8.66Zm-1.6 2.12H8.64v1.06H9.7v-1.06Zm.54-4.25V5.47H9.16v1.06h1.06Zm-6.38 0V5.47H2.78v1.06h1.06ZM1.72 5.47H.66v1.06h1.06V5.47ZM5.97.16v2.12h-.53v1.06h.53v.54h1.06v-1.6h.53V1.22h-.53V.16H5.97ZM1.72 1.22h2.12v2.12H1.72V1.22Zm7.44 0h2.12v2.12H9.16V1.22Zm-6.91.53v1.06h1.06V1.75H2.25Zm7.44 0v1.06h1.06V1.75H9.69Zm-7.97 6.9h2.12v2.13H1.72V8.66Zm.53.54v1.06h1.06V9.19H2.25Zm9.03 1.6v1.05h1.06v-1.06h-1.06Z"/></svg>