<svg xmlns="http://www.w3.org/2000/svg" fill="none" viewBox="0 0 17 18"><path fill="#05C2B6" d="M3.8 16.9c.05.04.11.07.18.07h7.04a.93.93 0 0 0 .33-1.8.79.79 0 0 0-.3-1 .8.8 0 0 0-.69-1.19H6.22L5.23 12a.27.27 0 0 0-.18-.08H.53v.53h4.4l1.83 1.83c.1.1.15.21.15.34a.49.49 0 0 1-.83.35l-1.11-1.11-.38.37 1.11 1.11a1 1 0 0 0 .67.3h4.66a.4.4 0 0 1 0 .8H4.08l-1.51-1.52a.26.26 0 0 0-.19-.08H.53v.54h1.75l1.52 1.51Zm2.95-3.38h3.6a.27.27 0 0 1 0 .53h-3.1l-.11-.15-.39-.38Zm.56 1.59a1 1 0 0 0 .13-.49v-.04h3.19a.27.27 0 0 1 0 .53H7.3ZM13.2 1.1a.26.26 0 0 0-.18-.07H5.98a.93.93 0 0 0-.33 1.8.79.79 0 0 0 .3 1 .79.79 0 0 0-.1.39c0 .44.35.8.8.8h4.13l.99.98c.04.05.11.08.18.08h4.52v-.53h-4.4l-1.83-1.83a.49.49 0 0 1 .69-.69l1.1 1.11.38-.37-1.11-1.11a1 1 0 0 0-.68-.3H5.97a.4.4 0 0 1 0-.8h6.94l1.51 1.52c.05.05.12.08.19.08h1.86v-.54h-1.75L13.2 1.11Zm-2.95 3.38h-3.6a.27.27 0 0 1 0-.53h3.1l.11.15.39.38ZM9.69 2.9a1 1 0 0 0-.13.49v.04H6.39a.27.27 0 0 1 0-.53H9.7Zm-7.3 8.2a.27.27 0 0 0 .25-.35 6.11 6.11 0 0 1 2.3-6.71l-.31-.43a6.66 6.66 0 0 0-2.65 6.68l-.79-.46-.26.46 1.33.77c.04.02.08.03.13.03Zm9.67 2.86.31.43a6.66 6.66 0 0 0 2.69-6.43l.74.47.28-.45-1.26-.8a.27.27 0 0 0-.4.3 6.14 6.14 0 0 1-2.36 6.48Z"/><path fill="#05C2B6" d="M8.5 12.45a3.46 3.46 0 1 0 0-6.91 3.46 3.46 0 0 0 0 6.91Zm0-6.37a2.93 2.93 0 1 1 0 5.85 2.93 2.93 0 0 1 0-5.85Z"/><path fill="#05C2B6" d="M7.97 10.6h.26v.53h.54v-.54h.4a.93.93 0 0 0 .48-1.71.93.93 0 0 0-.75-1.47h-.13v-.54h-.54v.54h-.26a.27.27 0 0 0-.27.26v2.66c0 .14.12.26.27.26Zm1.2-.54h-.94v-.8h.93a.4.4 0 0 1 0 .8Zm-.94-2.12h.67a.4.4 0 0 1 0 .8h-.67v-.8Zm-1.59.79h-.53v.54h.53v-.54Zm4.26 0h-.54v.54h.53v-.54Z"/></svg>