<svg xmlns="http://www.w3.org/2000/svg" fill="none" viewBox="0 0 13 18"><path fill="#05C2B6" d="M10.96 6.63H8.17v.56h2.79c.46 0 .83.37.83.83v1.13a1.38 1.38 0 0 0-.83-.29H2.04a.84.84 0 0 1 0-1.67h3.07v-.56H2.04c-.77 0-1.4.63-1.4 1.4v8.08c0 .76.63 1.39 1.4 1.39h8.92c.77 0 1.4-.63 1.4-1.4V8.03a1.4 1.4 0 0 0-1.4-1.39Zm.83 8.08H8.46a1.4 1.4 0 0 1 0-2.78h3.35v2.78Zm0-3.34H8.46a1.95 1.95 0 0 0 0 3.9h3.35v.84c0 .46-.38.83-.84.83H2.04a.84.84 0 0 1-.84-.83V9.14c.24.17.53.28.84.28h8.92c.46 0 .83.37.83.83v1.12Z"/><path fill="#05C2B6" d="M10.96 7.75H2.04v.55h8.92v-.55Z"/><path fill="#fff" d="M6.5 8.02a2.23 2.23 0 1 0 0-4.45 2.23 2.23 0 0 0 0 4.45Z"/><path fill="#05C2B6" d="M6.78 6.63h-.56a.28.28 0 0 1-.28-.28h-.56c0 .46.38.84.84.84v.28h.56v-.28a.84.84 0 0 0 0-1.67h-.56a.28.28 0 0 1 0-.56h.56c.15 0 .28.12.28.28h.55a.84.84 0 0 0-.83-.84v-.28h-.56v.28a.84.84 0 0 0 0 1.67h.56a.28.28 0 0 1 0 .56Zm.83 6.69a.84.84 0 1 0 1.68 0 .84.84 0 0 0-1.68 0Zm1.12 0a.28.28 0 1 1-.56 0 .28.28 0 0 1 .56 0ZM6.78.5h-.56v2.23h.56V.5Zm1.95.84h-.56v2.23h.56V1.34Zm-3.9.56h-.56v1.67h.56V1.89Z"/></svg>