<svg xmlns="http://www.w3.org/2000/svg" fill="none" viewBox="0 0 17 18"><path fill="#05C2B6" d="M11.55.52a5.1 5.1 0 0 0-2.76 1.1c-.2.15-2.72 2.67-2.93 2.91a5.15 5.15 0 0 0-1.17 3.6 5.03 5.03 0 0 0 2.23 3.83c.1.05.21.06.3.05.17-.03.2-.05.64-.5.23-.22.45-.45.48-.5.17-.22.26-.49.26-.76 0-.26-.05-.37-.27-.53a2.5 2.5 0 0 1-.88-1.2c-.09-.27-.1-.4-.1-.75 0-.27 0-.33.03-.46.08-.38.25-.75.47-1.02.09-.1 2.45-2.48 2.58-2.58a2.4 2.4 0 0 1 2.91-.11 2.37 2.37 0 0 1 .99 2.02 2.4 2.4 0 0 1-.87 1.8c-.17.18-.34.35-.35.38a.62.62 0 0 0-.07.3c0 .05.03.15.05.24.16.48.24.94.29 1.52.01.22.02.27.05.33.05.1.15.2.27.26.08.04.1.04.22.04.23 0 .2.03 1.08-.86.8-.81.91-.92 1.16-1.3A5.03 5.03 0 0 0 11.55.52Z"/><path fill="#05C2B6" d="M9.75 6c-.14.03-.18.06-.61.48l-.49.5a1.3 1.3 0 0 0-.25.77c0 .26.05.37.27.53.51.39.85.91.96 1.52.03.2.03.67 0 .85-.07.33-.22.7-.4.96a81.13 81.13 0 0 1-2.65 2.68 2.4 2.4 0 0 1-3.33-.26 2.4 2.4 0 0 1-.42-2.46c.14-.36.29-.56.71-.99.35-.36.38-.4.41-.55.03-.1.01-.19-.05-.4a6.16 6.16 0 0 1-.28-1.49c-.01-.22-.02-.27-.05-.33a.48.48 0 0 0-.25-.25c-.1-.05-.12-.05-.24-.05-.23 0-.2-.03-1.08.86-.79.8-.9.92-1.14 1.26a5.05 5.05 0 0 0 7.43 6.68c.22-.18 2.76-2.72 2.9-2.9a5.03 5.03 0 0 0-1.14-7.38.6.6 0 0 0-.3-.03Z"/></svg>