<svg xmlns="http://www.w3.org/2000/svg" fill="none" viewBox="0 0 17 18"><path fill="#05C2B6" d="M17 1.36a.86.86 0 0 0-.86-.86H9.09a.86.86 0 0 0-.59.23.86.86 0 0 0-.59-.23H.86a.86.86 0 0 0-.86.86v7.05c0 .23.09.44.23.59a.86.86 0 0 0-.23.59v7.05c0 .47.39.86.86.86h7.05c.23 0 .44-.09.59-.23.15.14.36.23.59.23h7.05c.47 0 .86-.39.86-.86V9.59a.86.86 0 0 0-.23-.59.86.86 0 0 0 .23-.59V1.36Zm-7.91-.3h7.05c.17 0 .3.13.3.3v7.05a.3.3 0 0 1-.3.31h-2.4a.27.27 0 0 1-.26-.27v-.14a.3.3 0 0 1 .13-.23A1.74 1.74 0 0 0 13 4.94a1.75 1.75 0 0 0-2.12 1.71c0 .57.28 1.1.75 1.43.08.06.13.14.13.23v.14c0 .15-.12.27-.27.27h-2.7v-2.7a.82.82 0 0 0-.83-.82h-.14a.83.83 0 0 0-.68.37 1.2 1.2 0 1 1 0-1.37c.16.24.41.38.68.38h.14c.46 0 .83-.37.83-.83V1.36c0-.17.14-.3.3-.3Zm-8.54.3c0-.17.14-.3.31-.3h7.05a.3.3 0 0 1 .31.3v2.4c0 .14-.12.26-.27.26h-.14a.3.3 0 0 1-.23-.13 1.74 1.74 0 0 0-3.14.62 1.75 1.75 0 0 0 1.71 2.12c.57 0 1.1-.28 1.43-.75a.28.28 0 0 1 .23-.13h.14c.15 0 .27.12.27.27v2.7h-2.7a.82.82 0 0 0-.82.83v.14c0 .27.14.52.37.68a1.2 1.2 0 1 1-1.37 0 .84.84 0 0 0 .38-.68v-.14a.82.82 0 0 0-.83-.83H.86a.31.31 0 0 1-.3-.3V1.35Zm7.36 15.59H.86a.31.31 0 0 1-.3-.31V9.59a.3.3 0 0 1 .3-.31h2.4c.14 0 .26.12.26.27v.14a.3.3 0 0 1-.13.23 1.74 1.74 0 0 0 1 3.17 1.74 1.74 0 0 0 .99-3.17.28.28 0 0 1-.13-.23v-.14c0-.15.12-.27.27-.27h2.7v2.7c0 .45.37.82.83.82h.14c.27 0 .52-.14.68-.37a1.2 1.2 0 1 1 0 1.36.83.83 0 0 0-.68-.37h-.14a.82.82 0 0 0-.83.83v2.39a.3.3 0 0 1-.3.3Zm8.54-.31a.3.3 0 0 1-.31.3H9.09a.31.31 0 0 1-.31-.3v-2.4c0-.14.12-.26.27-.26h.14c.09 0 .17.04.23.12a1.74 1.74 0 1 0 0-1.99.3.3 0 0 1-.23.14h-.14a.27.27 0 0 1-.27-.27v-2.7h2.7c.45 0 .82-.37.82-.83v-.14a.83.83 0 0 0-.37-.68 1.2 1.2 0 1 1 1.37 0 .84.84 0 0 0-.38.68v.14c0 .46.37.83.83.83h2.39c.17 0 .3.14.3.3v7.06Z"/></svg>