<svg xmlns="http://www.w3.org/2000/svg" fill="none" viewBox="0 0 15 18"><path fill="#05C2B6" d="m14.62 4.88-.01-1.31a.6.6 0 0 0-.6-.6c-2.54 0-4.48-.73-6.1-2.3a.6.6 0 0 0-.83 0c-1.61 1.57-3.55 2.3-6.1 2.3a.6.6 0 0 0-.59.6l-.01 1.3C.29 9.16.18 15 7.3 17.48a.6.6 0 0 0 .4 0c7.12-2.47 7-8.32 6.92-12.6ZM7.5 16.28C1.4 14.04 1.48 9.18 1.57 4.9v-.75A9.18 9.18 0 0 0 7.5 1.9a9.18 9.18 0 0 0 5.92 2.25l.01.75c.09 4.3.18 9.15-5.93 11.37Z"/><path fill="#05C2B6" d="M9.55 6.93 6.68 9.8 5.45 8.58a.6.6 0 0 0-.84.84l1.65 1.65a.6.6 0 0 0 .84 0l3.29-3.3a.6.6 0 1 0-.84-.84Z"/></svg>