<svg xmlns="http://www.w3.org/2000/svg" fill="none" viewBox="0 0 17 18"><path fill="#05C2B6" d="M1.38.52C.94.52.55.54.52.55A.51.51 0 0 0 .39.6C.3.66.11.87.06.97l-.05.1v7.02l.08.1c.1.16.25.3.37.34.09.04.14.04.34.04.22 0 .24 0 .34-.05.06-.03.15-.1.23-.17.14-.15.16-.2.2-.51l.02-2.97.01-2.77h13.8v13.8H9.3l-.13.08c-.17.09-.3.2-.36.34a.77.77 0 0 0 .36 1.1l.14.08h3.18c1.76 0 3.37 0 3.59-.02.38-.01.4-.01.49-.06.1-.05.28-.21.34-.33.04-.06.05-.11.07-.28.03-.3.03-15.4 0-15.65-.02-.22-.05-.27-.24-.45-.21-.2-.02-.18-1.74-.2H1.38Z"/><path fill="#05C2B6" d="M9.54 4.08a.76.76 0 0 0-.62.64.8.8 0 0 0 .32.77c.17.13.19.13.84.14l.58.03c.02.02-.27.31-1.76 1.82-1.4 1.42-1.68 1.7-1.76 1.87-.1.23-.02.58.22.8.24.23.57.32.8.2.15-.07.43-.34 1.86-1.75 1.5-1.49 1.8-1.78 1.82-1.76l.03.6c.01.7 0 .67.2.88.08.1.14.14.24.19.12.06.15.06.3.07.27.01.5-.07.65-.26.12-.14.15-.22.17-.52.03-.36.03-2.57 0-2.95-.03-.33-.06-.41-.21-.57a.67.67 0 0 0-.44-.2c-.17-.03-3.08-.03-3.24 0ZM.89 10.39c-.34.01-.35.01-.45.06a.95.95 0 0 0-.36.36c-.05.09-.05.12-.06.42-.02.39-.02 4.31 0 5.17.01.69 0 .63.21.85.2.2.24.22.64.23a253 253 0 0 0 5.39 0c.4-.01.44-.03.63-.2.14-.13.18-.22.2-.44.04-.23.04-5.57.01-5.8-.03-.25-.05-.28-.19-.42-.18-.19-.25-.21-.58-.23-.3-.02-4.92-.02-5.44 0Zm4.63 3.53v1.96l-.4.01-1.97.01H1.6v-3.78c.02-.13.02-.13.07-.14l1.95-.01h1.9v1.95Z"/></svg>