<svg xmlns="http://www.w3.org/2000/svg" fill="none" viewBox="0 0 17 16"><path fill="#05C2B6" d="M10.1 14.9v-.53a1.6 1.6 0 0 0-1.6-1.59H2.12a1.6 1.6 0 0 0-1.59 1.6v.53a.53.53 0 0 0 0 1.06h9.56a.53.53 0 0 0 0-1.06Zm-7.97-1.06H8.5c.3 0 .53.24.53.54v.53H1.6v-.53c0-.3.24-.54.53-.54ZM15.4 3.75H7.45V2.69h.53c.3 0 .53-.24.53-.53V.56c0-.3-.24-.53-.53-.53H2.66c-.3 0-.54.24-.54.53v1.6c0 .29.24.53.54.53h.53V8h-.53a.53.53 0 0 0-.54.53v1.6c0 .29.24.53.54.53h5.3a.53.53 0 0 0 .54-.54V8.54c0-.3-.24-.53-.53-.53h-.53V6.94h7.97a1.6 1.6 0 0 0 0-3.19ZM7.45 9.59H3.19v-.53h4.25v.53ZM3.19 1.1h4.25v.53H3.19V1.1Zm3.19 1.6V8H4.25V2.69h2.13Zm9.03 3.19H7.44V4.8h7.97a.53.53 0 0 1 0 1.07Z"/></svg>