<svg xmlns="http://www.w3.org/2000/svg" fill="none" viewBox="0 0 17 18"><g fill="#05C2B6" clip-path="url(#a)"><path d="M16.47 7.4H6.9c-.3 0-.54.24-.54.54H4.15c-.2 0-.38.11-.47.3-.6 1.2-1.8 1.6-2.6 1.75.26-.31.54-.76.7-1.39a.53.53 0 0 0-.1-.46.53.53 0 0 0-.42-.2H.53v-6.9h9.56v5.83a.27.27 0 1 0 .54 0V1.04c0-.3-.24-.53-.54-.53H.53a.51.51 0 0 0-.53.52v6.9c0 .3.24.54.53.54h.74A2.52 2.52 0 0 1 .15 10.1a.27.27 0 0 0 .1.5h.08c.45 0 2.8-.1 3.82-2.12h2.22v6.37c0 .3.24.54.54.54h5.94c1.02 2.02 3.37 2.12 3.82 2.12h.07a.26.26 0 0 0 .11-.5 2.51 2.51 0 0 1-1.11-1.62h.73c.3 0 .53-.24.53-.54v-6.9c0-.3-.24-.53-.53-.53Zm0 7.44h-.73a.53.53 0 0 0-.43.21c-.1.13-.13.3-.09.46.16.63.44 1.08.7 1.38-.8-.14-2-.55-2.6-1.75a.53.53 0 0 0-.47-.3H6.9v-6.9h9.56v6.9Z"/><path d="M9.06 12.89c.08.1.22.14.34.08l.91-.46 1.51 1.77c.1.1.25.12.36.04l.85-.63.58.72a.27.27 0 0 0 .37.04l.83-.66a.27.27 0 0 0 .04-.37l-.04-.05 1.07-1.28a.27.27 0 0 0-.2-.43h-.54V8.73a.27.27 0 0 0-.26-.26H13.8a.27.27 0 0 0-.26.26v2.93h-.53c-.1 0-.2.06-.24.15a.26.26 0 0 0-.03.09l-.53.4-1.38-1.61a.27.27 0 0 0-.32-.06l-.82.4-.93-1.3a.27.27 0 0 0-.37-.06l-.87.62a.27.27 0 0 0-.06.37l1.6 2.23Zm4.75-.7c.15 0 .27-.12.27-.27V9h.53v2.92c0 .15.12.27.27.27h.22l-.76.91-.76-.91h.23ZM8.5 10.26l.91 1.27c.08.1.22.14.33.08l.85-.42 1.4 1.64c.1.1.25.13.36.04l.7-.52 1.08 1.31-.26.21-.58-.72a.27.27 0 0 0-.37-.04l-.85.63-1.48-1.73a.27.27 0 0 0-.32-.06l-.9.44-1.3-1.82.43-.31ZM2.13 7.4h1.06c.14 0 .26-.12.26-.27v-.58l.14-.18.85.63a.26.26 0 0 0 .36-.04l1.5-1.75.91.46c.12.05.26.02.33-.08l1.86-2.5a.27.27 0 0 0-.06-.37L8.5 2.1a.27.27 0 0 0-.37.06l-1.2 1.58-.82-.42a.27.27 0 0 0-.33.07L4.4 4.99l-.88-.65-.07-.04v-.6h.53a.27.27 0 0 0 .2-.44l-1.32-1.6a.28.28 0 0 0-.4 0l-1.34 1.6a.27.27 0 0 0 .2.44h.54v3.45c0 .15.12.27.27.27Zm2.15-1.84c.1.08.27.06.36-.04l1.4-1.64.84.42c.12.06.26.02.34-.08l1.17-1.55.43.31-1.56 2.1-.9-.45a.27.27 0 0 0-.32.07L4.56 6.44 3.7 5.8a.26.26 0 0 0-.26-.03v-.82l.83.62ZM2.66 2.24l.76.92h-.23a.27.27 0 0 0-.27.26v3.46H2.4V3.42a.27.27 0 0 0-.26-.26H1.9l.76-.92Z"/><path d="M11.69 10.06h1.06a.27.27 0 1 0 0-.53h-1.06a.27.27 0 1 0 0 .53ZM4.79 1.3a.27.27 0 0 0-.27.26v.27h-.27a.27.27 0 1 0 0 .53h.27v.27a.27.27 0 1 0 .53 0v-.27h.26a.27.27 0 1 0 0-.53h-.26v-.27a.27.27 0 0 0-.27-.26Z"/></g><defs><clipPath id="a"><path fill="#fff" d="M0 .5h17v17H0z"/></clipPath></defs></svg>