<svg xmlns="http://www.w3.org/2000/svg" fill="none" viewBox="0 0 15 18"><path fill="#05C2B6" d="M10.99 10.24H8.21v-2.3a.7.7 0 1 0-1.42 0v2.3H4.01a.7.7 0 0 0-.7.83l1 5.48a.7.7 0 0 0 .7.58h4.98a.7.7 0 0 0 .7-.58l1-5.48c.06-.23-.1-.82-.7-.83ZM9.4 15.72H5.6l-.74-4.07h5.28l-.74 4.07ZM6.8 5.07a1.38 1.38 0 0 1-.23-.65l-.55.1c.02.29.09.53.21.72.13.2.28.35.45.43.18.1.4.15.67.19v.55h.33v-.56c.38-.02.7-.15.94-.4A1.4 1.4 0 0 0 8.9 4a1.13 1.13 0 0 0-.25-.39c-.1-.1-.25-.2-.42-.27-.09-.04-.27-.1-.55-.16V1.59c.18.04.32.12.43.23.1.12.17.28.2.5l.57-.09c-.05-.35-.2-.62-.44-.82a1.37 1.37 0 0 0-.76-.28V.87h-.33v.26c-.36.03-.64.13-.82.3a1.2 1.2 0 0 0-.42.95c0 .22.05.42.14.59.1.17.23.3.41.4.24.14.47.23.7.27V5.4a.8.8 0 0 1-.56-.32Zm.88-1.35c.3.1.5.2.59.32.1.13.15.29.15.48 0 .24-.07.44-.21.6a.81.81 0 0 1-.53.27V3.72Zm-.86-.91a.7.7 0 0 1-.16-.47c0-.2.07-.36.19-.5a.8.8 0 0 1 .5-.25V3.1a1.1 1.1 0 0 1-.53-.3Z"/><path fill="#05C2B6" d="M13.79 3.84a4.36 4.36 0 0 0-4.35 4.35c0 .4.31.7.7.7 2.4 0 4.36-1.95 4.36-4.35a.7.7 0 0 0-.71-.7Zm-2.82 3.53a2.95 2.95 0 0 1 2-2 2.96 2.96 0 0 1-2 2ZM4.86 8.9a.7.7 0 0 0 .71-.71v-.11A4.36 4.36 0 0 0 1.2 3.84a.7.7 0 0 0-.7.7c0 2.4 1.95 4.36 4.35 4.36ZM2.03 5.37a2.95 2.95 0 0 1 2 2 2.96 2.96 0 0 1-2-2Z"/></svg>