<svg xmlns="http://www.w3.org/2000/svg" fill="none" viewBox="0 0 58 59"><path fill="#05C2B6" d="m27.98.76-5.94 1.86c-5.28 1.64-5.08 1.62-7.6.73-.8-.27-2.09-.7-2.86-.93l-1.4-.44-.3.4c-.53.68-1.36 2.37-1.77 3.5-.2.61-.45 1.15-.53 1.2-.3.19-.54 1.96-.5 3.74.04 1.74.03 1.8-.48 2.54-.55.79-2.2 4-2.4 4.73-.1.24-.34.95-.58 1.6-1.14 3.08-1.52 6.1-1.7 13.41-.13 4.16-.13 4.26.2 4.14.16-.06.44-.28.61-.5.3-.4.3-.4.66-.06.3.28.38.63.5 1.9.15 1.84.37 3.3.52 3.45.08.1.43-.61.69-1.42.08-.27.25-.38.58-.38.59 0 .7.16 1.2 1.53a26.67 26.67 0 0 0 2.64 5.27c.7.95 1.3 1.56 2.55 2.52 1.07.85 1.14.88 1.06.44-.04-.2 0-.58.1-.85.28-.72.88-.62 1.5.3.29.4 1.11 1.36 1.85 2.1.74.77 1.37 1.5 1.42 1.68.14.4 1.83 1.47 3.4 2.13 2.34 1 4.31 2.08 5.14 2.8l.78.71 2.52.07c1.5.05 2.51.02 2.51-.08 0-.7 2.45-2.37 4.11-2.8a29.6 29.6 0 0 0 4.4-1.83c.1-.09.16-.33.1-.6-.06-.38.1-.64.93-1.55 1.4-1.52 1.4-1.52 1.93-2.25.57-.74 1.26-.86 1.52-.25.1.22.29.4.46.44.33.06 2.4-1.58 3.08-2.45a21 21 0 0 0 2.98-5.77c.42-1.25.5-1.39.9-1.39.3 0 .46.14.6.51.18.5.52.76.78.6.14-.1.4-1.8.6-3.86.08-.81.18-1.13.34-1.13.17 0 .22-.14.15-.48l-.08-.45.17.44c.13.33.27.44.52.37.2-.07.42.03.58.22.2.28.24-.29.16-4.75-.07-5.35-.32-7.95-.94-10.23l-.47-1.78a31.12 31.12 0 0 0-3.25-6.83c-.5-.72-.5-.74-.4-2.48.04-.95.03-1.95-.06-2.22-.84-2.7-1.57-4.4-2.4-5.57-.58-.83-.35-.85-3.38.15-2.41.8-3.69 1.13-4.34 1.15-.27 0-2.79-.73-5.62-1.63L29.91.6c-.6-.17-.83-.15-1.93.17Zm3.35 2.77c1.16.38 2.31.73 2.58.8.25.05.45.15.45.22 0 .05-1.12.23-2.5.4a14 14 0 0 1-4.74.04c-2.58-.3-3.47-.46-3.23-.51.57-.15 1.72-.5 3.27-1 .97-.32 1.82-.59 1.9-.59.1-.02 1.11.29 2.27.64Zm-18.5.65c1.55.54 1.75.64 1.28.69a5.6 5.6 0 0 1-1.4-.14c-.47-.1-.9-.13-.94-.08-.12.1.7.4 1.7.62 1.2.26.64.48-1.23.5-.82.01-1.51.08-1.51.16 0 .09.17.16.38.16.2 0 .49.06.6.15.2.13.17.18-.16.25l-1.07.24-.67.17.92.01.92.04-.84.42c-.45.22-.95.52-1.09.68-.22.23-.2.25.25.13.49-.1.47-.07-.42.85-.88.93-.92.94-.97.52-.16-1.28 1.53-6 2.13-6 .15 0 1.1.29 2.11.63Zm36.02.59c.82 1.72 1.62 4.9 1.29 5.1-.14.09-.35-.13-1.36-1.32l-.42-.49.49.12c.77.19.27-.29-.79-.76l-.87-.4.92-.09.92-.08-.82-.14c-1.14-.2-1.36-.3-1.07-.47.11-.09.38-.15.6-.15.22 0 .35-.07.3-.16a5.92 5.92 0 0 0-1.62-.17c-1.78-.01-2.47-.25-1.31-.43.87-.16 2-.58 2-.77 0-.06-.37-.01-.83.12-.47.14-1.15.22-1.56.19-.68-.05-.65-.07 1.04-.68.98-.34 1.93-.62 2.13-.62.3-.02.49.22.96 1.2Zm-22.62 1.6c2.54.38 3.7.38 6.17 0a43.9 43.9 0 0 1 8.89-.13c3.18.52 5.91 2.42 8.5 5.91.73.99 1.34 1.86 1.34 1.93 0 .09-.66-.47-1.44-1.21-1.73-1.63-2.27-1.83-.8-.33 3.9 4.08 5.09 6.44 6.08 12.04.5 2.8 1.02 9.4.73 9.4-.32 0-1.27-3.58-1.47-5.65-.09-.8-.17-1.08-.27-.9-.1.16-.08.89.02 1.77.27 2.33.23 2.3-.5-.63-.2-.8-.5-2.54-.7-3.87a19.56 19.56 0 0 0-.41-2.54c-.2-.17.08 3.57.35 4.97.6 3.05.77 4.55.87 7.46.09 2.84 0 4.46-.23 4.22-.29-.28-1.06-2.58-1.33-3.98-.32-1.61-.32-1.61-.37-.71-.03.49.07 1.35.22 1.92l.25 1.03-.77 2.47c-.75 2.42-1.62 4.58-1.83 4.58-.05 0-.06-.05-.03-.12.2-.38.97-3.1.92-3.27-.03-.1-.4.67-.8 1.72-.87 2.28-2.08 4.8-2.37 4.99-.25.15-.2.01.6-2.05.31-.84.61-1.9.66-2.37.1-.77.07-.72-.48.77a11.3 11.3 0 0 1-.78 1.77c-.08.08-.11-1.12-.06-3.21a27.1 27.1 0 0 0 0-3.21c-.04.08-.34 1.04-.66 2.1-.53 1.8-1.44 4.07-1.44 3.63 0-.12.2-.88.44-1.7.23-.82.5-1.92.59-2.43.1-.5.2-1.06.25-1.23.05-.15.03-.29-.05-.29-.07 0-.27.6-.44 1.3-.44 1.81-1.8 5.8-2.51 7.37a11.24 11.24 0 0 1-4.7 4.77c-.7.36-1.34.6-1.4.52-.07-.06.16-1.55.51-3.33.36-1.77.6-3.24.57-3.3-.05-.03-.3.45-.55 1.06-.25.6-.95 1.86-1.56 2.75-1.2 1.84-1.17 1.8-1.29 1.7-.03-.06.13-.62.4-1.28.27-.64.54-1.43.59-1.75l.1-.6-.28.6c-.16.32-.8 1.65-1.4 2.97-1.02 2.15-1.4 2.77-1.59 2.57-.03-.03.24-.9.59-1.91.75-2.11.72-2 .52-1.86-.24.14-.96 1.8-1.48 3.35-.42 1.3-.78 1.98-.95 1.79-.05-.03.1-.64.33-1.32.69-2.04.37-1.93-.48.17-.8 1.91-1.45 2.86-1.98 2.86-.49 0-1.1-.93-1.83-2.7-.38-.99-.77-1.9-.85-2.04-.24-.37-.02.73.37 1.86.4 1.17.4 1.3-.02.93-.19-.17-.34-.42-.34-.55 0-.3-1.49-4.11-1.69-4.33-.3-.32-.15.34.44 1.9.65 1.78.7 2.02.31 1.7-.3-.24-2.02-3.67-2.5-4.95-.18-.46-.35-.75-.38-.63a9.81 9.81 0 0 0 1.04 3.13c.1.28.07.28-.17.08-.48-.4-1.9-2.64-2.61-4.12-.37-.8-.7-1.42-.74-1.4-.02.03.25 1.48.6 3.26.34 1.75.57 3.28.5 3.34-.2.24-1.59-.47-2.88-1.42a10.98 10.98 0 0 1-3.23-3.85 61.6 61.6 0 0 1-2.52-7.5c-.06-.34-.18-.6-.25-.55-.17.1.22 1.93.77 3.79.24.76.39 1.44.36 1.49-.14.12-1.08-2.34-1.63-4.26a50.2 50.2 0 0 0-.57-1.9c-.02-.01 0 1.54.03 3.47.04 1.93.02 3.45-.03 3.4-.05-.05-.37-.9-.7-1.86-.34-.97-.64-1.8-.7-1.85-.36-.35.6 3.13 1.16 4.28.19.36.3.78.26.93-.07.37-1.41-2.26-2.22-4.38-.95-2.53-.99-2.58-1.04-2.41-.05.15.39 1.77.88 3.36.05.19-.09-.02-.32-.46-.7-1.3-2-5.36-2-6.3-.01-.48.09-1.5.2-2.34.3-2.14.15-2.1-.35.09-.43 1.94-1.14 4.02-1.34 4.02-.22 0-.35-2.33-.23-4.56.1-2.25.25-3.38.9-7.27.35-2.03.64-6 .37-4.9a34.9 34.9 0 0 0-.44 2.7 38.7 38.7 0 0 1-1.22 5.83l-.18.51.06-.52c.25-1.73.3-3.16.14-3.05-.12.07-.2.36-.2.63 0 1.25-1.2 5.73-1.53 5.73-.1 0-.13-.24-.08-.56.05-.29.13-1.45.18-2.57.27-5.34 1.1-9.53 2.45-12.58a24 24 0 0 1 3.62-5c.44-.47.99-1.06 1.22-1.33.84-.99-.23-.17-1.57 1.16-.7.71-1.28 1.24-1.28 1.19 0-.34 2.18-3.23 3.22-4.27 2.15-2.13 3.37-2.92 5.47-3.5 2.14-.59 6.43-.65 10-.15Z"/><path fill="#05C2B6" d="M24.37 7.02c.19.13.4.25.49.25.07 0 .47.24.89.5.79.56 1.7 1.36 1.52 1.36-.06 0-.8-.37-1.66-.85-.85-.45-2.04-.96-2.64-1.11a6.66 6.66 0 0 0-3.86.17l-.59.27.93-.09.92-.1-1.26.5c-.69.26-1.53.62-1.84.79-.5.27-.54.32-.27.42.27.08.17.2-.62.66-.94.54-1.8 1.38-1.8 1.76 0 .13.05.13.14.03.07-.1.3-.32.52-.5.22-.2.05.11-.37.67-.99 1.28-1 1.44-.07 1.25l.84-.15c.08 0-.17.35-.55.8-1.91 2.19-3.04 4.49-3.12 6.38-.05 1.12-.05 1.14.08.34.15-.91.67-2.35 1.2-3.3.43-.79.41-.59-.1.73-.26.75-.51 2.01-.73 3.87-.45 3.77-.53 4.7-.45 4.7.03 0 .37-.5.72-1.15l.64-1.13.1 3.13c.15 4.56.75 7.6 1.93 9.58l.46.81.12-.5c.07-.29.12-.93.14-1.46 0-.52.06-1 .11-1.04.07-.07.34.32.62.86 1.51 2.9 3.8 6.5 4.93 7.72l.62.68.12-.5c.07-.3.12-.8.13-1.14.04-.96.3-.91.52.07.22 1 .98 2.75 1 2.31 0-.15-.14-.76-.31-1.35a27.8 27.8 0 0 1-.42-1.59l-.1-.5.3.4c.15.22.44.68.62 1.01 2.5 4.59 5.05 8.98 5.18 8.93.09-.03 1.44-2.37 3.02-5.17 1.58-2.83 2.88-5.06 2.92-4.96a9 9 0 0 1-.39 1.83c-.23.9-.4 1.66-.37 1.7.1.1.7-1.46 1.1-2.82l.3-1.1.11 1.27c.07.7.19 1.32.27 1.4.37.38 4.22-5.3 5.65-8.36.17-.36.35-.64.42-.64.15 0 .32 1.08.32 2.06 0 .46.05.81.13.81.07 0 .32-.4.59-.9 1.2-2.31 1.79-5.42 1.79-9.63 0-3.2-.02-3.18.96-1.52l.57.98-.1-1.36c-.22-2.87-.64-5.8-1.03-7a7.27 7.27 0 0 1-.35-1.31c.13-.12 1.1 2.26 1.22 2.94.07.4.19.73.29.73.22 0 .03-1.14-.39-2.32a15.2 15.2 0 0 0-2.71-4.36c-.87-.97-.84-1.03.28-.76.37.08.69.12.72.08.09-.08-.57-1.05-1.1-1.65-.5-.55-.42-.61.13-.12.67.59.6.2-.1-.53a6 6 0 0 0-1.32-1.03c-.86-.44-.87-.46-.6-.64.26-.17-.86-.8-2.29-1.25a3.12 3.12 0 0 1-.88-.4c0-.04.4-.02.88.03l.88.1-.68-.27c-.36-.14-1.2-.3-1.84-.36-1.7-.13-3.12.34-5.58 1.84-.3.2-.59.3-.64.26-.13-.14 1.07-1.12 2.06-1.68 1.16-.65.9-.84-.33-.23a7.17 7.17 0 0 0-2.43 2.08c-.14.22-.3.39-.37.39s-.32-.46-.57-1.02c-.25-.56-.5-1.01-.57-1-.07 0-.34.44-.6 1l-.47.98-.98-1a7.78 7.78 0 0 0-1.86-1.42c-1.02-.47-1.6-.57-1.09-.16Zm-1.15 3.87c.47.22 1.24.7 1.72 1.1.5.4.94.69.98.64.05-.04-.29-.44-.73-.88-.67-.68-.73-.78-.38-.68.23.05.59.32.8.56l1.23 1.42c.9 1.07 1.67 1.62 1.34 1a1.2 1.2 0 0 0-.35-.44c-.25-.15-.87-1.1-.72-1.1.08 0 .62.46 1.2 1.01l1.06 1.04 1.17-1.12c1.18-1.13 1.81-1.4.86-.37-.29.29-.6.72-.72.96l-.22.42.38-.33c.5-.44 1.46-1.5 2-2.2.38-.5.99-.93 1.3-.93.06 0-.21.34-.6.76-.37.4-.68.8-.68.84 0 .06.47-.27 1.05-.69 1.34-1.01 2.21-1.42 3.05-1.4l.67.02-.58.2c-1.24.4-1.2.52.18.45 1.46-.05 2.57.09 2.41.33-.05.08-.3.06-.6-.04-.97-.34-.65-.02.55.58 1.2.59 2.32 1.54 2.1 1.75-.07.07-.2.04-.34-.06-.3-.26-1.12-.56-1.12-.4 0 .06.39.36.84.68.47.33.84.66.84.75 0 .39-.4 1.47-.56 1.47-.08 0-.45-.27-.8-.6-1.24-1.13-3.39-1.89-4.12-1.45-.26.16-.22.17.25.19.57 0 2.33.56 2.58.81.08.09-.39.12-1.09.07-1.02-.07-1.34-.02-1.93.29-.38.2-.8.5-.9.69-.3.47-.6.42-.5-.09.03-.23 0-.42-.07-.42-.09 0-.44.9-.8 1.98l-.61 2 .48.43c.66.61 2.1 1.14 3.47 1.27 1.18.12 1.43-.12.37-.35l-.55-.12.64-.15c.89-.2 1.92-.78 2.13-1.17.23-.42.08-.42-.46 0-.82.66-.58.19.56-1.08a18.9 18.9 0 0 1 1.2-1.29c.04 0 0 .16-.05.36-.08.24.04.56.36 1.01.4.6.46.92.6 2.56.08 1.03.12 1.9.07 1.94a3.9 3.9 0 0 1-.29-1.13 4.27 4.27 0 0 0-.37-1.3c-.17-.1-.03 1.53.24 3.22.18 1.02.06 2.22-.2 2.4-.09.06-.16-.03-.16-.16 0-.46-.23-.3-.83.57a3.6 3.6 0 0 1-.7.85c-.07 0 .06-.43.3-.93.5-1.19.5-1.32-.04-.68l-.42.5.12-.65c.18-1.08-.2-.58-.62.83a5.7 5.7 0 0 1-.49 1.26 3 3 0 0 1-.32-.98c-.21-1.01-.67-2.03-.68-1.53 0 .15.11.64.25 1.1.3.97.3 1.08.08 1.08-.08 0-.17-.1-.17-.24 0-.34-1.5-2.55-2.4-3.57l-.78-.84.75 1.48c.42.82.76 1.61.76 1.78 0 .15-.15-.03-.32-.4-.44-.95-.74-1.1-.4-.2.45 1.23.33 2.85-.3 4.59-.73 1.91-.96 2.1-2.08 1.55-.6-.28-1-.64-1.41-1.26a3.19 3.19 0 0 1-.5-.92c1.74-1.2 3.42-2.87 3.23-3.2a10.65 10.65 0 0 0-1.91-2.56c-.59-.34-.85-.34-1.27-.02-.3.26-.3.26.11.15.8-.16.67.22-.23.68l-.87.44-.37-.42c-.47-.53-.62-.53-1 .01l-.33.44-.93-.47c-.96-.47-1.14-.86-.32-.68.42.1.42.1.1-.15-.2-.17-.5-.23-.76-.17-.52.12-1.46 1.14-2 2.18l-.43.78 1.1 1.1c.6.63 1.33 1.27 1.64 1.45.28.2.53.43.53.53 0 .08-.22.49-.5.9-.57.82-1.48 1.43-2.16 1.43-.39 0-.52-.13-.84-.78-.87-1.74-1.3-4.27-.87-5.1.06-.15.18-.53.25-.8.1-.47.08-.47-.32.17-.67 1.08-.49.29.27-1.08.37-.68.63-1.28.58-1.32-.08-.1-1.72 1.98-2.36 3a8.87 8.87 0 0 0-.7 1.35l-.24.59.09-.76c.05-.42.11-1.07.18-1.44l.1-.68-.32.77a7.73 7.73 0 0 0-.45 1.47c-.12.72-.42 1.01-.42.4 0-.42-.64-2.52-.8-2.62-.07-.03-.1.2-.07.54l.07.63-.44-.42-.45-.43.17.48c.1.25.3.69.45.98.43.84.15.74-.54-.22-.47-.63-.67-.8-.7-.6-.1.48-.3.33-.52-.37a2.6 2.6 0 0 1-.02-1.43c.24-1.07.39-3.84.19-3.4-.09.18-.17.56-.17.84-.02.27-.1.63-.2.76-.14.19-.15-.2-.1-1.4.08-1.42.15-1.76.52-2.33.23-.36.43-.86.43-1.12v-.47l.45.6a23 23 0 0 0 1.21 1.38c.76.84.74 1.08-.05.45-.57-.45-.75-.3-.23.19.52.5 1.6 1 2.23 1.01.38 0 .45.05.25.17a1.4 1.4 0 0 1-.62.17c-.2 0-.42.09-.49.2-.18.3 2.1.04 3.17-.38a4.5 4.5 0 0 0 1.37-.83l.47-.5-.68-2.07c-.56-1.7-.68-1.96-.7-1.46 0 .76-.1.8-.55.22-.73-.96-2.66-1.4-3.92-.93-.38.16-.42.16-.25-.06.27-.32 2.1-.95 2.77-.95.45-.02.48-.03.2-.19-.7-.42-2.68.27-4 1.39-.43.36-.83.66-.91.66-.09 0-.24-.32-.36-.73-.18-.67-.16-.72.27-1.13.25-.24.64-.54.87-.7.64-.42.32-.52-.4-.13-.35.19-.67.3-.7.27-.22-.22.95-1.22 2.06-1.74 1.19-.6 1.6-.95.64-.57-.25.1-.5.13-.56.08-.25-.24.32-.34 1.98-.34 1.86 0 1.96-.08.59-.52l-.67-.22h.67c.37-.02 1.04.17 1.5.39Zm.67 6.93c1.24 1.32 1.22 1.54-.12 1.38a5.84 5.84 0 0 1-1.76-.45c-.67-.32-1.9-1.54-1.9-1.9 0-.08.63-.13 1.43-.1l1.43.07.92 1Zm14.67-.91c0 .32-1.25 1.55-1.92 1.89-.88.46-2.61.62-2.61.25 0-.45 1.3-1.87 2-2.18.41-.18 2.53-.15 2.53.04Zm-7.4 17.12 1.41.54.39 1.17c.21.64.42 1.2.45 1.23.03.04.3-.34.6-.8.39-.63.59-.84.72-.7.14.13.04.37-.33.84-.84 1.05-1.04 1.19-1.31.81-.22-.3-.27-.28-.94.34-.84.78-2.18 1.47-2.8 1.47-.63 0-1.9-.66-2.76-1.42-.4-.35-.77-.66-.83-.66-.05 0-.11.16-.16.36-.09.32-.17.27-.86-.46-.77-.83-.9-1.15-.6-1.33.08-.05.35.28.59.76.23.47.5.8.57.76.08-.04.28-.54.45-1.1.17-.58.38-1.1.48-1.18.34-.3 2.69-1.15 3.1-1.15.24 0 1.06.23 1.83.52Zm-5.68 1.08c0 .09-.08.26-.17.4-.15.21-.18.21-.33 0-.25-.38-.2-.52.16-.52.19 0 .34.05.34.12Zm8.38.09c0 .32-.28.7-.37.54-.28-.53-.27-.75.04-.75.18 0 .33.1.33.2Z"/><path fill="#05C2B6" d="M24.74 46.7a8 8 0 0 0 1.08 2.07c.3.19.16-.35-.36-1.4-.5-1.02-.97-1.44-.72-.68Zm9-.2c-.48.63-1.15 2.36-.9 2.36.18 0 1.22-2.18 1.16-2.4-.04-.1-.14-.09-.26.05Z"/></svg>